<svg xmlns="http://www.w3.org/2000/svg" viewBox="0 0 1306 443" width="1306" height="443">
  <path d="M958.699 365.92C962.478 365.92 965.659 366.73 968.239 368.35C970.153 369.552 971.803 371.201 973.189 373.295V367H981.288V411.01C981.288 417.01 979.339 421.75 975.439 425.229C971.599 428.709 966.349 430.449 959.689 430.449C954.589 430.449 950.148 429.22 946.369 426.76C942.649 424.3 940.699 420.459 940.519 415.239L948.259 414.699C948.439 418.239 949.55 420.699 951.589 422.079C953.689 423.459 956.689 424.149 960.589 424.149C964.369 424.149 967.399 423.039 969.679 420.819C972.019 418.599 973.189 415.51 973.189 411.55V403.958C971.767 406.164 970.088 407.885 968.149 409.119C965.569 410.799 962.509 411.64 958.969 411.64C954.889 411.64 951.289 410.68 948.169 408.76C945.05 406.84 942.619 404.109 940.879 400.569C939.199 397.029 938.359 392.949 938.359 388.329C938.359 383.949 939.199 380.079 940.879 376.72C942.619 373.3 945.019 370.66 948.079 368.8C951.198 366.88 954.739 365.92 958.699 365.92ZM700.52 365.92C704.18 365.92 707.57 366.7 710.69 368.26C713.81 369.76 716.27 371.95 718.07 374.829C719.45 376.989 720.47 379.6 721.13 382.659C721.79 385.659 722.03 388.75 721.85 391.93H687.74C687.86 396.909 688.97 400.6 691.07 403C693.17 405.4 696.32 406.6 700.52 406.6C704.36 406.6 707.33 405.79 709.43 404.17C711.53 402.49 712.85 399.94 713.39 396.52L721.22 397.149C720.26 402.369 718.01 406.329 714.47 409.029C710.99 411.729 706.37 413.079 700.61 413.079C697.13 413.079 694.04 412.54 691.34 411.46C688.64 410.38 686.329 408.73 684.41 406.51C682.55 404.41 681.17 401.95 680.27 399.13C679.37 396.25 678.92 393.009 678.92 389.409C678.92 386.05 679.4 382.959 680.36 380.14C681.32 377.26 682.73 374.77 684.59 372.67C686.57 370.45 688.91 368.77 691.61 367.63C694.31 366.49 697.28 365.92 700.52 365.92ZM1037.77 365.92C1041.43 365.92 1044.82 366.7 1047.94 368.26C1051.06 369.76 1053.52 371.95 1055.32 374.829C1056.7 376.989 1057.72 379.6 1058.38 382.659C1059.04 385.659 1059.28 388.75 1059.1 391.93H1024.99C1025.11 396.909 1026.22 400.6 1028.32 403C1030.42 405.4 1033.57 406.6 1037.77 406.6C1041.61 406.6 1044.58 405.79 1046.68 404.17C1048.78 402.49 1050.1 399.94 1050.64 396.52L1058.47 397.149C1057.51 402.369 1055.26 406.329 1051.72 409.029C1048.24 411.729 1043.62 413.079 1037.86 413.079C1034.38 413.079 1031.29 412.54 1028.59 411.46C1025.89 410.38 1023.58 408.73 1021.66 406.51C1019.8 404.41 1018.42 401.95 1017.52 399.13C1016.62 396.25 1016.17 393.009 1016.17 389.409C1016.17 386.05 1016.65 382.959 1017.61 380.14C1018.57 377.26 1019.98 374.77 1021.84 372.67C1023.82 370.45 1026.16 368.77 1028.86 367.63C1031.56 366.49 1034.53 365.92 1037.77 365.92ZM1191.39 365.92C1196.85 365.92 1201.26 367.359 1204.62 370.239C1207.98 373.059 1210.14 376.75 1211.1 381.31L1203.54 382.75C1202.7 379.63 1201.38 377.139 1199.58 375.279C1197.78 373.36 1195.05 372.399 1191.39 372.399C1188.87 372.399 1186.77 372.76 1185.09 373.479C1183.41 374.199 1182.03 375.25 1180.95 376.63C1179.87 378.07 1179.09 379.87 1178.61 382.029C1178.19 384.189 1177.98 386.68 1177.98 389.5C1177.98 395.079 1178.94 399.339 1180.86 402.279C1182.78 405.159 1186.29 406.6 1191.39 406.6C1194.87 406.6 1197.57 405.879 1199.49 404.439C1201.41 402.999 1202.79 400.66 1203.63 397.42L1211.28 398.229C1210.74 401.229 1209.54 403.869 1207.68 406.149C1205.88 408.369 1203.57 410.079 1200.75 411.279C1197.99 412.479 1194.87 413.079 1191.39 413.079C1186.83 413.079 1182.87 412.15 1179.51 410.29C1176.15 408.37 1173.57 405.639 1171.77 402.1C1169.97 398.56 1169.07 394.36 1169.07 389.5C1169.07 384.88 1169.97 380.8 1171.77 377.26C1173.57 373.66 1176.15 370.87 1179.51 368.89C1182.93 366.91 1186.89 365.92 1191.39 365.92ZM1265.56 365.92C1269.22 365.92 1272.61 366.7 1275.73 368.26C1278.85 369.76 1281.31 371.95 1283.11 374.829C1284.49 376.989 1285.51 379.599 1286.17 382.659C1286.83 385.659 1287.07 388.75 1286.89 391.93H1252.78C1252.9 396.909 1254.01 400.6 1256.11 403C1258.21 405.4 1261.36 406.6 1265.56 406.6C1269.4 406.6 1272.37 405.79 1274.47 404.17C1276.57 402.49 1277.89 399.94 1278.43 396.52L1286.26 397.149C1285.3 402.369 1283.05 406.329 1279.51 409.029C1276.03 411.729 1271.41 413.079 1265.65 413.079C1262.17 413.079 1259.08 412.54 1256.38 411.46C1253.68 410.38 1251.37 408.73 1249.45 406.51C1247.59 404.41 1246.21 401.95 1245.31 399.13C1244.41 396.25 1243.96 393.009 1243.96 389.409C1243.96 386.05 1244.44 382.959 1245.4 380.14C1246.36 377.26 1247.77 374.77 1249.63 372.67C1251.61 370.45 1253.95 368.77 1256.65 367.63C1259.35 366.49 1262.32 365.92 1265.56 365.92ZM631.853 367H644.633V373.75H631.853V400.659C631.853 402.399 632.334 403.6 633.293 404.26C634.253 404.86 635.964 405.159 638.423 405.159C640.163 405.159 642.114 404.89 644.274 404.35L644.454 411.729C643.614 411.969 642.593 412.15 641.393 412.27C640.193 412.389 638.993 412.449 637.793 412.449C632.934 412.449 629.393 411.55 627.173 409.75C624.954 407.95 623.843 405.009 623.843 400.93V373.75H614.393V367H623.843V354.489H631.853V367ZM501.321 356.109H493.85V404.89H501.321V412H478.191V404.89H485.661V356.109H478.191V349H501.321V356.109ZM562.381 365.92C565.321 365.92 567.871 366.34 570.031 367.18C572.251 367.96 574.172 369.22 575.791 370.96C577.351 372.58 578.311 374.56 578.671 376.899C579.091 379.239 579.301 382.03 579.301 385.27V412H570.931V385.359C570.931 382.78 570.781 380.739 570.481 379.239C570.181 377.74 569.431 376.419 568.231 375.279C567.091 374.14 565.891 373.419 564.631 373.119C563.371 372.819 561.901 372.67 560.221 372.67C557.281 372.67 554.581 373.69 552.122 375.729C549.722 377.709 548.521 381.52 548.521 387.159V412H540.421V367H548.521V373.854C549.508 371.651 550.888 369.905 552.662 368.619C555.121 366.819 558.362 365.92 562.381 365.92ZM773.686 405.159H781.876V412H756.586V405.159H765.586V355.84H758.117V349H773.686V405.159ZM834.967 405.159H843.158V412H817.868V405.159H826.868V355.84H819.397V349H834.967V405.159ZM896.068 405.159H904.258V412H878.968V405.159H887.968V373.84H880.318V367H896.068V405.159ZM1116.7 365.92C1119.64 365.92 1122.19 366.34 1124.35 367.18C1126.57 367.96 1128.49 369.22 1130.11 370.96C1131.67 372.58 1132.63 374.56 1132.99 376.899C1133.41 379.239 1133.62 382.03 1133.62 385.27V412H1125.25V385.359C1125.25 382.78 1125.1 380.739 1124.8 379.239C1124.5 377.74 1123.75 376.419 1122.55 375.279C1121.41 374.14 1120.21 373.419 1118.95 373.119C1117.69 372.819 1116.22 372.67 1114.54 372.67C1111.6 372.67 1108.9 373.69 1106.44 375.729C1104.04 377.709 1102.84 381.52 1102.84 387.159V412H1094.74V367H1102.84V373.854C1103.83 371.651 1105.21 369.905 1106.98 368.619C1109.44 366.819 1112.68 365.92 1116.7 365.92ZM960.409 372.399C958.129 372.399 956.179 372.73 954.559 373.39C952.939 373.99 951.619 374.89 950.599 376.09C949.399 377.41 948.529 379.09 947.989 381.13C947.449 383.17 947.179 385.57 947.179 388.329C947.179 392.049 947.569 395.14 948.349 397.6C949.129 399.999 950.449 401.86 952.309 403.18C954.229 404.5 956.869 405.159 960.229 405.159C962.269 405.159 964.039 404.86 965.538 404.26C967.098 403.6 968.419 402.67 969.499 401.47C970.879 399.91 971.899 397.99 972.559 395.71C973.219 393.43 973.549 390.969 973.549 388.329C973.549 383.05 972.409 379.089 970.129 376.449C967.909 373.749 964.668 372.399 960.409 372.399ZM178.977 337.465C184.502 337.461 188.983 341.938 188.985 347.463L188.995 386.809C188.996 392.341 184.505 396.824 178.972 396.812L148.208 396.742C142.914 396.73 138.549 392.597 138.424 387.304C138.135 375.029 138.297 359.649 138.555 347.211C138.667 341.799 143.097 337.493 148.509 337.488L178.977 337.465ZM700.61 372.489C698.15 372.489 695.99 372.94 694.13 373.84C692.27 374.68 690.89 375.85 689.99 377.35C688.67 379.509 687.95 382.06 687.83 385V385.359H713.564C713.532 384.169 713.296 382.849 712.85 381.399C712.43 379.78 711.86 378.429 711.14 377.35C710 375.67 708.56 374.439 706.82 373.659C705.14 372.879 703.069 372.489 700.61 372.489ZM1037.86 372.489C1035.4 372.489 1033.24 372.94 1031.38 373.84C1029.52 374.68 1028.14 375.85 1027.24 377.35C1025.92 379.509 1025.2 382.06 1025.08 385V385.359H1050.82C1050.79 384.169 1050.55 382.849 1050.1 381.399C1049.68 379.78 1049.11 378.429 1048.39 377.35C1047.25 375.67 1045.81 374.439 1044.07 373.659C1042.39 372.879 1040.32 372.489 1037.86 372.489ZM1265.65 372.489C1263.19 372.489 1261.03 372.94 1259.17 373.84C1257.31 374.68 1255.93 375.85 1255.03 377.35C1253.71 379.509 1252.99 382.06 1252.87 385V385.359H1278.6C1278.57 384.169 1278.34 382.849 1277.89 381.399C1277.47 379.78 1276.9 378.429 1276.18 377.35C1275.04 375.67 1273.6 374.439 1271.86 373.659C1270.18 372.879 1268.11 372.489 1265.65 372.489ZM895.708 358.63H887.428V348.909H895.708V358.63ZM243.522 87.5762C249.07 87.5816 253.553 92.1034 253.512 97.6514L253.464 103.992C253.188 161.695 281.277 158.081 324.53 157.21C329.831 157.103 334.209 161.224 334.288 166.525C334.41 174.829 334.299 185.072 334.108 193.388C333.985 198.734 329.632 202.923 324.285 202.875C305.972 202.711 269.366 202.393 258.839 203.967C256.96 204.248 255.817 205.685 255.606 207.573C254.024 221.713 254.381 273.907 254.498 297.365C254.525 302.728 250.296 307.09 244.934 307.177C235.538 307.329 225.768 307.255 216.32 307.213C210.817 307.188 206.36 302.751 206.459 297.249C206.836 276.397 207.943 248.064 201.616 233.075C184.57 196.586 147.396 203.646 114.259 202.965C111.419 202.907 108.554 202.967 105.71 202.97L9.98967 202.978C4.48558 202.978 0.0136002 198.53 0.00431746 193.026C-0.0103773 184.173 0.0124463 175.319 0.0726768 166.466C0.108325 161.292 4.09757 157.027 9.26994 156.902C22.6457 156.58 40.7727 157.065 51.7963 157.068L153.253 157.108C162.575 157.113 189.303 157.934 200.402 156.108C202.6 155.747 204.219 154.207 204.484 151.994C206.007 139.266 204.554 96.7491 205.487 88.3926C205.544 87.9065 205.957 87.5397 206.447 87.54L243.522 87.5762ZM1221.75 88.0371C1261.33 87.8228 1304.66 99.5216 1304.74 147.311C1290.93 147.482 1276.81 147.334 1262.98 147.341C1262.11 140.597 1261.44 137.052 1256.65 131.868C1247.63 122.714 1231.25 121.121 1218.84 120.882C1202.75 120.573 1174.1 123.83 1173.7 144.981C1173.93 151.641 1180.98 157.806 1186.33 160.315C1224.98 178.432 1303.12 167.126 1305.64 225.975C1307.77 275.677 1261.52 284.54 1223.16 285.542L1221.69 285.546C1179.73 285.607 1130.42 278.187 1130.68 224.632L1171.55 224.585C1174.44 249.739 1194.11 251.899 1215.76 252.514C1233 253.002 1265.69 252.364 1264.39 227.895C1263.48 210.729 1240.97 208.334 1227.97 205.785C1203 200.259 1168.28 197.951 1148.29 180.643C1139.56 173.176 1134.32 162.435 1133.79 150.965C1131.16 103.466 1174.04 90.0859 1212.8 88.166C1215.78 88.1004 1218.77 88.0569 1221.75 88.0371ZM467.888 16.0977C480.777 15.5481 495.98 15.9646 508.927 16.0801C509.205 40.2083 513.036 61.6447 490.672 77.043C501.827 77.9277 518.546 77.4795 529.978 77.459L598.284 77.3848C598.405 88.8443 598.4 100.305 598.267 111.765L507.093 111.923C507.022 112.951 506.968 113.981 506.931 115.011C506.062 145.342 506.816 177.225 507.301 207.562C507.664 230.267 528.598 248.746 551.372 247.795C605.918 245.226 610.227 184.218 622.881 144.835C632.403 115.199 659.978 93.351 689.655 87.4238C724.335 80.4988 765.956 84.2145 791.759 110.445C816.755 135.861 814.44 165.162 814.187 197.305L723.426 197.348L658.256 197.366C664.872 236.449 696.603 253.492 733.797 247.818C749.987 245.349 760.162 238.633 769.545 225.698C783.925 225.431 799.08 225.676 813.523 225.675C808.25 241.445 798.115 255.134 784.566 264.771C750.478 289.113 685.212 288.52 652.28 261.813C642.388 253.79 636.854 246.115 629.562 235.908C611.834 265.235 585.502 282.197 550.795 281.981C526.326 281.829 506.894 277.092 488.864 259.688C463.496 235.201 467.754 203.344 467.814 171.268L467.798 111.891L411.858 111.773L411.875 77.1709L416.556 77.1875C431.925 77.1843 445.162 76.4916 456.893 64.6943C469.899 51.6152 468.091 33.1382 467.888 16.0977ZM1038.34 84.3408C1073.74 84.0688 1106.78 104.113 1112.86 141.055C1115.42 156.629 1113.87 178.056 1113.84 194.312L1113.77 279.548L1075.98 279.588L1076.04 194.82C1076.05 161.296 1083.05 120.105 1035.6 119.049C982.64 117.87 992.561 173.015 992.727 208.499C992.822 232.184 992.783 255.87 992.593 279.554L955.082 279.581L955.106 193.463C955.114 181.051 956.252 158.745 953.73 147.179C946.939 116.06 900.718 110.667 880.385 131.324C875.366 136.404 871.927 142.829 870.488 149.822C868.187 160.468 868.907 186.306 868.891 198.188L868.868 279.552L830.938 279.589L831.175 197.107C831.096 160.262 826.06 126.019 859.903 101.003C874.314 90.3498 889.097 86.0079 906.709 84.5537C908.67 84.4778 910.631 84.4349 912.599 84.4238C939.793 84.2965 955.58 90.5125 974.782 109.564C989.596 90.4507 1015.38 84.5164 1038.34 84.3408ZM717.505 118.096C715.142 118.153 712.778 118.286 710.414 118.495C686.92 121.913 670.247 129.918 661.593 153.649C660.109 157.721 659.283 159.74 659.446 164.156L660.246 165.29C672.666 166.544 708.872 165.656 723.007 165.617C739.648 165.621 756.747 165.836 773.348 165.589C773.411 132.347 747.94 117.617 717.505 118.096ZM179.019 0.0429688C184.538 0.0513496 189.008 4.53035 189.004 10.0498L188.982 44.8916C188.978 50.3912 184.534 54.8556 179.035 54.8848L177.471 54.8936C167.789 54.9438 158.106 54.9273 148.423 54.8447C142.973 54.7981 138.584 50.3729 138.57 44.9229C138.541 33.2626 138.572 21.6017 138.664 9.94141C138.707 4.5583 143.018 0.187678 148.4 0.0527344L150.489 0L179.019 0.0429688Z" fill="#FFFFFF"/>
</svg>
